<?xml version="1.0" encoding="UTF-8"?>
<svg id="Layer_1" xmlns="http://www.w3.org/2000/svg" viewBox="0 0 378.93 85.35">
  <g>
    <path d="M111.84,25.74v-5.18h29.16v5.18h-29.16ZM115.96,65.49l-4.12-3.27,25.04-39.98,4.12,3.5-25.04,39.75ZM111.84,67.4v-5.18h29.82v5.18h-29.82Z" style="fill: #18181b;"/>
    <path d="M147.97,67.4l14.09-46.85h7.92l14.09,46.85h-5.71l-12.07-42.1h-.53l-12.07,42.1h-5.71ZM153.97,55.43v-5.15h23.75v5.15h-23.75Z" style="fill: #18181b;"/>
    <path d="M208.87,68.06c-6.82,0-11.98-2.05-15.47-6.14s-5.25-10.09-5.25-18.01,1.79-13.54,5.36-17.73,8.61-6.28,15.09-6.28c3.17,0,5.96.49,8.38,1.47,2.42.98,4.23,2.36,5.44,4.14l-4.06,4.02c-1.1-1.47-2.47-2.61-4.11-3.4-1.64-.79-3.39-1.19-5.26-1.19-4.77,0-8.48,1.62-11.13,4.87-2.65,3.24-3.98,7.84-3.98,13.77,0,6.36,1.34,11.18,4.02,14.48,2.68,3.3,6.6,4.95,11.75,4.95,2.07,0,3.89-.2,5.48-.61,1.58-.41,2.88-.75,3.89-1.04l2.38,4.72c-.92.29-2.52.69-4.78,1.2-2.27.52-4.85.78-7.75.78ZM205.83,49.69v-5.15h15.37v5.15h-15.37ZM215.99,66.09v-21.54h5.41v21.54h-5.41Z" style="fill: #18181b;"/>
    <path d="M230.28,67.4V20.56h5.61v46.85h-5.61ZM235.39,49.06v-5.21h11.15c2.81,0,5-.75,6.55-2.26,1.55-1.51,2.33-3.65,2.33-6.42,0-3.01-.78-5.34-2.33-6.98-1.55-1.64-3.73-2.46-6.55-2.46h-11.02l-.79-5.18h11.81c4.64,0,8.23,1.22,10.75,3.65,2.53,2.43,3.79,5.87,3.79,10.31s-1.27,8.2-3.79,10.74c-2.53,2.54-6.12,3.81-10.75,3.81h-11.15ZM256.31,67.4l-10.89-22.04h6.07l11.32,22.04h-6.5Z" style="fill: #18181b;"/>
    <path d="M270.53,67.4V20.56h5.61v46.85h-5.61ZM270.53,25.74v-5.18h30.48v5.18h-30.48ZM270.53,46.52v-5.15h24.55v5.15h-24.55ZM270.53,67.4v-5.18h30.48v5.18h-30.48Z" style="fill: #18181b;"/>
    <path d="M324.24,68.06c-9.85,0-14.78-5.23-14.78-15.7v-31.8h5.61v31.8c0,3.5.75,6.13,2.24,7.88,1.5,1.76,3.85,2.64,7.06,2.64,6.2,0,9.3-3.51,9.3-10.52v-31.8h5.61v31.8c0,5.23-1.28,9.16-3.83,11.78-2.55,2.62-6.29,3.93-11.22,3.93Z" style="fill: #18181b;"/>
    <path d="M362.34,68.06c-2.6,0-5.03-.2-7.29-.61-2.27-.41-4.39-1.03-6.37-1.86l.73-5.51c2.38.97,4.68,1.7,6.91,2.19s4.42.74,6.55.74c3.41,0,5.95-.59,7.62-1.78,1.67-1.19,2.51-2.98,2.51-5.38,0-3.1-1.53-5.39-4.59-6.86l-9.63-4.68c-2.86-1.36-5.05-3-6.57-4.92s-2.28-4.27-2.28-7.06c0-4.02,1.2-7.1,3.6-9.24s5.86-3.2,10.39-3.2c3.06,0,5.79.46,8.2,1.39s4.68,2.39,6.81,4.39l-3.79,3.83c-1.98-1.56-3.87-2.71-5.66-3.45-1.79-.74-3.63-1.1-5.53-1.1-2.68,0-4.73.6-6.14,1.8-1.41,1.2-2.11,2.99-2.11,5.36,0,1.58.42,2.9,1.25,3.94.83,1.04,2.07,1.96,3.69,2.75l8.48,4.19c3.17,1.52,5.56,3.28,7.19,5.29,1.63,2.01,2.44,4.5,2.44,7.47,0,4.11-1.36,7.19-4.07,9.24-2.72,2.04-6.83,3.07-12.36,3.07Z" style="fill: #18181b;"/>
  </g>
  <g>
    <polygon points="81.41 59.56 46.16 59.56 60.86 45.05 96.12 45.05 81.41 59.56" style="fill: #18181b;"/>
    <polygon points="72.24 11.34 37.5 42.83 56.38 42.78 3.28 85.35 24.49 55.5 0 55.42 44.75 14.95 15.93 14.95 4.36 0 84.81 0 72.23 11.33 72.24 11.34" style="fill: #18181b;"/>
  </g>
</svg>